<?xml version="1.0" encoding="utf-8" ?><svg xmlns="http://www.w3.org/2000/svg" xmlns:xlink="http://www.w3.org/1999/xlink" width="806" height="1024" viewBox="0 0 806 1024"><path fill="#11202D" transform="scale(4.63218 4.63348)" d="M0 0L174 0L174 221L0 221L0 0Z"/><path fill="#1084DA" transform="scale(4.63218 4.63348)" d="M89.9274 68.2032C91.0951 68.4081 98.3875 72.8765 99.9085 73.7502L134.072 92.9792C137.786 95.0598 144.772 99.6614 148.525 100.871C148.374 116.707 148.958 132.714 148.66 148.575C148.604 151.52 148.663 154.539 148.744 157.483C144.632 159.167 139.165 162.432 135.162 164.684L115.732 175.611C111.255 178.15 106.765 180.665 102.262 183.156C97.8686 185.559 93.9377 187.543 89.7903 190.381C81.1273 185.664 72.2584 180.454 63.637 175.596L30.4353 156.961C30.3263 155.751 30.3334 154.296 30.3091 153.062L30.3678 132.238C36.0805 136.42 45.9708 141.398 52.451 145.128L75.4819 158.314C79.9878 160.883 85.0313 163.883 89.6134 166.221C95.9974 163.121 102.844 158.811 109.037 155.287C115.047 151.866 122.819 148.229 128.34 144.275C127.924 134.812 128.2 123.428 128.199 113.822C117.261 107.701 106.577 101.087 95.5877 95.0474C94.2195 94.2954 92.9829 93.638 91.5162 93.0855C89.8367 93.7858 89.5733 94.1566 88.3476 95.4586C82.9286 92.7136 71.2911 85.6111 66.7173 81.9632C69.756 79.2645 74.8703 76.6116 78.5034 74.5536C82.1511 72.4872 86.216 70.0994 89.9274 68.2032Z"/><path fill="#1084DA" transform="scale(4.63218 4.63348)" d="M89.6495 21.2523C89.9816 21.2167 90.1717 21.2401 90.4641 21.4063C99.2622 26.6222 108.08 31.508 117.086 36.352C123.494 39.7992 129.722 44.0582 136.298 47.3898C140.253 49.3936 145.05 52.1356 148.686 54.5634C148.462 62.3894 148.759 70.3536 148.493 78.4197C145.305 76.5327 141.884 74.8083 138.638 72.9794L112.915 58.3752C107.114 55.0468 95.4306 47.6007 89.5385 45.1701C86.7294 46.0095 53.4165 65.1099 51.0723 66.9131C50.5021 70.0339 50.7292 76.6142 50.7555 79.9743L50.798 97.9874C53.4255 99.2172 57.0191 101.678 59.7362 103.166C64.678 105.873 69.605 108.645 74.4498 111.521C77.1735 113.136 85.8263 118.514 89.0357 119.228C89.7224 119.381 91.103 117.607 91.6596 116.944C93.2827 118.292 95.0864 119.057 96.7321 120.15C100.895 122.915 108.149 126.477 111.84 129.584C107.479 133.821 95.2071 140.092 89.2761 143.682L30.5472 110.187C30.2188 101.302 30.3818 92.2912 30.3734 83.3878C30.3641 73.5643 30.1814 63.7242 30.5087 53.9128C32.5088 53.0519 34.9807 51.5577 36.956 50.4709C41.1783 48.1585 45.3793 45.8074 49.5584 43.4177C58.0616 38.6015 66.7828 33.8983 75.3394 29.163C79.9515 26.6106 85.0261 23.6096 89.6495 21.2523Z"/></svg>